<svg xmlns="http://www.w3.org/2000/svg" viewBox="11164.49 528.001 8.995 16.008">
  <defs>
    <style>
      .cls-1 {
        fill: #ff4777;
        fill-rule: evenodd;
      }
    </style>
  </defs>
  <g id="Arrow-down" transform="translate(11163.509 528)">
    <path id="Shape" class="cls-1" d="M9.6,12.177,6.394,15.6a1.236,1.236,0,0,1-1.831,0l-3.2-3.426a1.455,1.455,0,0,1,0-1.958,1.236,1.236,0,0,1,1.831,0L4.2,11.3V1.375A1.4,1.4,0,0,1,4.774.232,1.223,1.223,0,0,1,5.489,0,1.332,1.332,0,0,1,6.775,1.375v9.9l.992-1.061a1.235,1.235,0,0,1,1.83,0,1.453,1.453,0,0,1,0,1.958Z"/>
  </g>
</svg>
