<svg xmlns="http://www.w3.org/2000/svg" viewBox="10930.492 527.991 8.995 16.008">
  <defs>
    <style>
      .cls-1 {
        fill: #9ddf00;
        fill-rule: evenodd;
      }
    </style>
  </defs>
  <g id="arrow-up" transform="translate(10929.5 527)">
    <path id="Shape" class="cls-1" d="M9.609,6.781a1.236,1.236,0,0,1-1.831,0L6.766,5.7v9.927A1.4,1.4,0,0,1,6.2,16.768,1.223,1.223,0,0,1,5.48,17a1.332,1.332,0,0,1-1.286-1.374V5.72L3.2,6.781a1.235,1.235,0,0,1-1.83,0,1.453,1.453,0,0,1,0-1.958L4.575,1.4a1.236,1.236,0,0,1,1.831,0l3.2,3.426a1.455,1.455,0,0,1,0,1.958Z"/>
  </g>
</svg>
